<?xml version="1.0" standalone="no"?>
<!DOCTYPE svg PUBLIC "-//W3C//DTD SVG 20010904//EN"
 "http://www.w3.org/TR/2001/REC-SVG-20010904/DTD/svg10.dtd">
<svg version="1.0" xmlns="http://www.w3.org/2000/svg"
 width="1200.000000pt" height="1200.000000pt" viewBox="0 0 1200.000000 1200.000000"
 preserveAspectRatio="xMidYMid meet">
<metadata>
Created by potrace 1.11, written by Peter Selinger 2001-2013
</metadata>
<g transform="translate(0.000000,1200.000000) scale(0.100000,-0.100000)"
fill="#000000" stroke="none">
<path d="M2006 8123 c-1 -1 -56 -5 -122 -8 -67 -3 -129 -7 -140 -9 -10 -2 -53
-7 -94 -11 -41 -4 -83 -9 -94 -11 -10 -2 -44 -6 -75 -9 -31 -4 -63 -8 -71 -10
-8 -3 -42 -7 -75 -11 -33 -3 -63 -8 -66 -10 -3 -1 -30 -6 -60 -9 -30 -3 -61
-8 -69 -10 -8 -2 -33 -7 -55 -10 -39 -5 -61 -9 -115 -20 -14 -2 -38 -7 -55
-10 -16 -3 -39 -8 -50 -10 -53 -10 -86 -16 -150 -30 -82 -18 -109 -23 -150
-31 -79 -14 -106 -26 -124 -55 -14 -23 -17 -39 -11 -65 5 -20 11 -38 14 -41 8
-9 62 -5 126 7 30 6 66 13 80 16 14 2 59 11 100 19 99 20 112 22 151 29 19 3
45 8 59 11 14 2 36 7 50 10 14 2 41 7 60 10 19 3 60 10 90 15 30 5 79 12 109
15 30 4 63 9 75 11 12 2 41 6 66 9 25 3 56 7 70 10 14 3 54 8 90 11 36 2 79 7
95 9 17 2 64 7 105 10 41 4 86 9 100 11 102 17 538 24 693 10 157 -13 194 -18
392 -51 69 -11 197 -52 270 -86 64 -30 127 -84 151 -131 32 -61 9 -195 -42
-245 -8 -8 -14 -18 -14 -23 0 -22 -134 -140 -210 -186 -79 -46 -315 -166 -455
-229 -53 -25 -204 -79 -230 -84 -5 -1 -26 -6 -45 -11 -19 -5 -51 -12 -70 -15
-19 -3 -42 -8 -50 -10 -22 -6 -70 -15 -114 -21 -22 -3 -44 -7 -48 -10 -4 -3
-8 -2 -9 3 -5 56 -18 142 -25 173 -3 14 -7 36 -10 50 -2 14 -5 34 -7 45 -2 11
-7 31 -10 45 -3 14 -11 54 -18 90 -8 36 -14 68 -15 73 -1 4 -2 14 -3 22 -1 16
-80 105 -93 105 -13 0 -39 -113 -34 -149 7 -42 14 -76 16 -76 1 0 3 -7 5 -15
1 -8 9 -42 16 -75 7 -33 14 -64 15 -70 1 -5 3 -12 4 -15 1 -3 3 -16 4 -30 2
-14 6 -34 9 -45 3 -11 9 -42 13 -70 3 -27 8 -53 10 -57 8 -13 -20 -21 -80 -24
-34 -1 -181 -5 -327 -9 -147 -3 -274 -8 -283 -9 -10 -1 -42 -22 -72 -45 l-55
-43 53 -25 c49 -23 67 -25 228 -28 96 -2 240 -7 320 -11 80 -4 166 -7 193 -7
26 -1 47 -3 48 -6 0 -3 2 -15 4 -26 3 -11 7 -49 10 -85 4 -36 8 -76 10 -90 2
-14 6 -49 9 -77 7 -66 17 -150 21 -184 2 -15 7 -55 10 -90 4 -35 8 -77 11 -94
8 -62 16 -131 19 -165 3 -35 13 -111 21 -160 2 -14 6 -50 10 -80 3 -30 7 -62
9 -70 2 -8 7 -40 10 -70 4 -30 18 -76 31 -102 23 -46 25 -47 52 -36 54 23 52
14 38 198 -4 47 -9 96 -11 110 -6 35 -16 126 -20 180 -2 25 -6 62 -9 83 -9 54
-14 94 -21 162 -8 79 -14 125 -20 155 -2 14 -7 50 -10 80 -3 30 -7 66 -9 80
-3 14 -7 48 -10 75 -4 28 -8 61 -11 75 -2 14 -7 46 -10 73 l-6 47 38 -5 c21
-2 48 -7 59 -9 12 -2 39 -7 60 -10 22 -4 66 -11 99 -17 33 -5 71 -12 85 -14
74 -12 218 -43 320 -69 8 -3 37 -9 63 -15 80 -19 335 -105 442 -151 219 -93
379 -192 490 -304 96 -96 119 -146 120 -256 0 -77 -3 -92 -33 -152 -35 -72
-101 -148 -142 -164 -14 -6 -43 -10 -65 -8 -22 1 -114 5 -205 8 -91 3 -176 8
-190 10 -26 5 -107 13 -200 22 -30 3 -66 7 -80 9 -40 7 -162 18 -195 18 -64
-1 -73 -4 -109 -38 l-37 -35 21 -28 c12 -16 34 -36 51 -46 29 -17 53 -20 264
-31 61 -4 148 -8 195 -11 86 -5 857 -14 1250 -16 178 -1 226 2 278 17 87 25
114 66 73 116 -21 27 -48 28 -501 15 -418 -11 -397 -11 -376 10 44 44 109 158
130 228 37 123 3 273 -89 386 -177 220 -655 456 -1125 555 -8 2 -62 15 -120
30 -58 15 -114 29 -125 31 -11 2 -41 8 -66 14 -26 6 -55 13 -65 15 -11 2 -19
4 -19 5 0 2 -14 5 -54 14 -39 9 -35 12 36 31 101 27 397 125 407 136 6 5 16 9
22 9 14 0 127 51 259 117 131 65 301 182 370 253 85 88 85 87 85 99 0 6 3 11
8 11 8 0 46 72 60 117 17 51 8 142 -19 198 -22 47 -100 135 -144 162 -106 67
-330 149 -460 168 -11 2 -38 6 -60 10 -74 12 -123 18 -240 31 -56 7 -673 13
-679 7z"/>
<path d="M8717 7905 c-53 -18 -73 -39 -110 -114 -17 -36 -32 -68 -33 -71 0 -3
-3 -12 -6 -20 -17 -44 -25 -107 -23 -181 4 -119 14 -164 99 -459 24 -85 43
-156 41 -158 -4 -4 -664 -24 -745 -22 -19 0 -85 -1 -315 -5 -99 -2 -511 -6
-915 -9 -404 -4 -753 -9 -776 -12 -29 -3 -49 -14 -70 -37 -61 -66 -61 -63 -5
-92 49 -25 55 -25 183 -19 256 11 264 11 928 29 148 4 763 12 1443 19 288 3
319 2 324 -13 3 -9 14 -34 23 -56 59 -135 313 -825 324 -878 2 -6 8 -24 14
-40 11 -27 94 -261 115 -324 14 -44 57 -92 84 -96 12 -2 26 -6 29 -10 4 -4 15
-7 25 -7 12 0 19 12 25 48 4 26 7 52 7 57 0 21 -17 71 -32 95 -9 13 -15 27
-15 30 2 7 -5 27 -26 80 -43 108 -43 113 4 213 41 87 61 133 65 149 1 4 9 27
17 50 47 133 59 236 58 506 l-1 212 143 0 c87 0 153 5 168 12 59 26 67 96 14
127 -23 15 -44 17 -111 14 -155 -9 -242 -8 -243 2 0 6 -4 28 -9 50 -4 22 -9
47 -10 55 -33 183 -142 456 -246 615 -127 196 -313 306 -442 260z m168 -189
c60 -27 122 -84 183 -166 46 -63 130 -235 161 -331 29 -88 81 -301 76 -310 -3
-3 -108 -7 -234 -7 l-230 -1 -66 207 c-37 114 -73 226 -81 249 -7 23 -16 52
-18 65 -3 13 -8 34 -11 48 -33 140 -24 229 26 259 41 25 124 19 194 -13z m451
-976 c1 -14 5 -50 9 -80 14 -107 7 -308 -15 -415 -23 -114 -23 -112 -59 -229
-17 -54 -31 -105 -31 -112 0 -39 -21 -2 -62 109 -106 283 -278 748 -278 751 0
2 98 3 217 2 l217 -1 2 -25z"/>
<path d="M4900 6066 c-162 -52 -240 -211 -185 -376 10 -30 24 -61 32 -68 7 -7
13 -17 13 -21 0 -13 79 -90 127 -122 82 -57 208 -107 318 -127 17 -3 86 -5
155 -6 170 0 233 9 395 57 39 11 75 21 80 23 6 1 49 18 96 38 105 43 130 45
194 16 99 -46 214 -25 299 54 21 20 43 33 50 29 6 -3 24 -16 41 -27 88 -61
157 -82 275 -80 111 1 228 14 282 30 10 3 30 8 45 10 55 10 180 56 270 100 50
24 94 44 97 44 3 0 26 -22 52 -50 82 -87 190 -133 314 -133 114 0 197 36 293
127 21 20 41 36 44 36 2 0 25 -20 50 -45 51 -51 87 -73 153 -90 70 -18 244 -6
358 26 60 17 341 116 350 124 4 3 -36 95 -41 95 -3 0 -36 -12 -73 -26 -186
-70 -253 -86 -379 -90 -109 -4 -156 6 -220 44 -56 34 -90 73 -111 129 -10 26
-33 70 -51 98 -18 27 -33 53 -33 57 0 5 -4 8 -9 8 -5 0 -17 -24 -27 -52 -9
-29 -19 -57 -23 -63 -3 -5 -6 -16 -8 -24 -5 -39 -68 -144 -100 -168 -33 -25
-45 -28 -112 -28 -88 1 -104 5 -169 40 -95 51 -166 137 -207 248 -15 39 -22
47 -42 47 -36 0 -78 -28 -90 -60 -8 -21 -6 -41 8 -86 10 -32 19 -64 19 -70 0
-24 -199 -96 -300 -109 -29 -4 -62 -9 -74 -11 -33 -6 -187 -6 -232 0 -23 3
-70 15 -105 26 -58 18 -90 36 -202 112 -62 43 -102 22 -136 -72 -26 -72 -61
-103 -106 -96 -36 6 -115 46 -115 58 0 4 -7 8 -15 8 -7 0 -18 6 -22 14 -4 8
-25 32 -45 55 -21 22 -38 42 -38 45 0 3 -11 22 -25 42 -14 20 -25 42 -25 48 2
54 118 72 205 32 28 -13 67 -39 86 -58 27 -27 109 -68 136 -68 1 0 2 29 0 64
-2 55 -7 71 -33 103 -37 45 -137 99 -208 111 -95 15 -205 -27 -259 -100 -29
-39 -45 -131 -35 -193 5 -27 23 -72 39 -99 16 -27 28 -50 27 -52 -5 -4 -204
-51 -248 -58 -105 -17 -147 -20 -270 -20 -209 0 -322 20 -438 76 -38 19 -91
79 -117 133 -28 57 -35 81 -42 142 -5 40 -4 41 29 49 78 19 180 6 244 -32 49
-28 61 -51 37 -70 -22 -16 -149 -48 -161 -40 -17 10 -42 -19 -46 -56 -2 -21
-1 -40 3 -42 8 -6 64 -17 96 -20 39 -4 139 25 192 55 118 68 130 158 32 243
-106 91 -267 141 -359 112z"/>
<path d="M10249 6003 c0 -16 -3 -37 -5 -48 -3 -11 -7 -59 -9 -107 -2 -49 -8
-103 -15 -122 -13 -42 -62 -83 -114 -97 -68 -18 -182 3 -253 47 -34 21 -141
128 -168 168 -49 70 -46 68 -85 49 -38 -20 -42 -34 -28 -111 8 -46 64 -140
106 -178 98 -90 239 -154 328 -149 78 5 121 30 231 136 l51 50 21 -65 c26 -82
26 -103 0 -111 -29 -10 -54 -30 -130 -106 -76 -77 -123 -166 -165 -310 -23
-82 -27 -112 -27 -234 0 -128 6 -170 38 -313 35 -151 134 -369 222 -487 115
-154 271 -277 413 -327 105 -36 219 -41 276 -11 88 44 110 181 60 363 -48 178
-127 422 -186 580 -17 47 -38 103 -46 125 -8 22 -16 45 -18 50 -2 6 -8 21 -13
35 -6 14 -36 93 -68 175 -31 83 -60 159 -65 170 -5 11 -27 67 -49 125 -44 114
-43 119 19 121 19 0 49 2 65 4 17 2 85 6 153 9 129 6 157 15 167 54 9 37 -3
59 -43 78 -53 25 -226 23 -347 -4 -49 -12 -93 -18 -96 -14 -6 7 -70 206 -70
217 0 35 -122 264 -141 265 -5 0 -8 -12 -9 -27z m180 -745 c24 -62 67 -174 96
-248 28 -74 87 -225 129 -335 43 -110 82 -209 86 -220 10 -20 81 -208 115
-300 10 -27 18 -52 18 -55 -1 -3 4 -14 9 -24 6 -10 12 -35 13 -55 2 -20 4 -36
6 -36 1 0 3 -33 4 -73 2 -61 -1 -74 -16 -82 -44 -24 -177 -2 -267 44 -114 59
-276 207 -339 311 -76 125 -121 233 -160 382 -24 94 -28 126 -27 248 1 111 5
156 22 217 39 138 103 233 206 303 28 19 53 34 57 35 3 0 24 -51 48 -112z"/>
<path d="M8448 4878 c-24 -24 -23 -59 2 -86 12 -12 23 -22 25 -22 2 0 14 14
26 31 18 25 20 35 11 54 -17 36 -43 46 -64 23z"/>
<path d="M5322 4845 c-8 -18 -12 -110 -12 -284 0 -230 2 -260 16 -265 19 -7
44 10 44 30 0 18 0 18 57 -10 170 -86 338 21 328 208 -4 76 -20 113 -71 162
-42 41 -77 54 -149 54 -35 0 -113 -27 -137 -48 -17 -14 -18 -11 -18 59 0 51
-5 81 -16 97 -20 28 -28 28 -42 -3z m302 -196 c41 -27 66 -87 66 -154 0 -89
-84 -157 -178 -145 -27 3 -61 13 -74 22 -67 44 -84 188 -29 254 46 57 150 68
215 23z"/>
<path d="M6675 4862 c-3 -3 -5 -132 -5 -286 l0 -281 231 1 c239 2 252 4 261
44 3 13 -24 15 -192 17 -107 0 -199 2 -205 2 -6 1 -10 91 -9 251 0 168 -3 250
-10 251 -55 5 -66 5 -71 1z"/>
<path d="M7478 4745 c-2 -2 -23 -5 -48 -8 -60 -7 -89 -19 -123 -51 -83 -78
-92 -245 -16 -330 77 -88 263 -93 349 -11 96 92 82 282 -26 355 -36 25 -125
54 -136 45z m45 -76 c23 -6 50 -18 61 -27 65 -59 67 -186 4 -251 -17 -17 -33
-31 -37 -32 -3 0 -15 -3 -26 -5 -127 -29 -218 35 -216 152 1 132 86 197 214
163z"/>
<path d="M8766 4735 c-48 -10 -66 -19 -93 -48 -28 -31 -32 -42 -28 -73 2 -20
10 -43 17 -51 21 -25 80 -50 153 -63 158 -29 196 -48 187 -96 -9 -50 -156 -72
-238 -35 -23 10 -53 31 -67 47 -24 25 -28 27 -51 15 -27 -15 -25 -30 11 -74
67 -85 293 -102 378 -29 51 44 54 129 5 175 -16 15 -32 27 -35 27 -3 0 -6 0
-7 1 -26 8 -163 37 -204 43 -52 9 -80 36 -65 64 15 28 66 43 129 37 59 -5 105
-26 136 -61 15 -17 27 -22 44 -18 45 13 14 82 -53 117 -58 29 -141 38 -219 22z"/>
<path d="M9338 4735 c-111 -28 -169 -114 -163 -241 7 -135 102 -216 245 -210
74 3 133 40 168 104 22 39 22 42 5 42 -16 0 -34 -10 -112 -62 -36 -24 -112
-23 -161 2 -60 31 -94 109 -47 111 12 0 83 1 157 1 74 1 147 5 163 11 36 12
44 47 22 103 -27 70 -86 124 -153 139 -57 12 -77 12 -124 0z m140 -64 c47 -24
69 -51 74 -88 l3 -28 -152 0 -153 -1 0 23 c0 86 136 142 228 94z"/>
<path d="M5819 4724 c-15 -18 -9 -30 78 -176 28 -49 49 -88 46 -88 -3 0 1 -8
9 -17 27 -31 58 -101 58 -132 0 -18 -17 -54 -44 -95 -42 -63 -43 -66 -25 -82
20 -18 25 -16 70 26 9 8 76 135 150 282 124 247 133 268 118 284 -15 15 -19
14 -42 -6 -14 -12 -31 -36 -38 -54 -7 -17 -17 -38 -24 -46 -6 -8 -24 -44 -40
-80 -16 -36 -34 -72 -41 -80 -6 -8 -16 -28 -21 -45 l-9 -29 -41 69 c-41 72
-50 88 -93 172 -23 46 -77 113 -91 113 -3 0 -12 -7 -20 -16z"/>
<path d="M7827 4720 c-9 -13 -13 -56 -12 -153 1 -119 4 -139 24 -178 52 -99
136 -119 271 -65 58 23 83 31 78 24 -1 -2 4 -13 11 -26 9 -17 19 -22 39 -20
l27 3 -1 198 c-1 184 -3 199 -21 217 -37 34 -68 -16 -58 -93 18 -128 -1 -192
-70 -233 -65 -38 -94 -43 -147 -28 -72 22 -85 50 -83 186 2 115 -8 173 -31
182 -8 3 -19 -3 -27 -14z"/>
<path d="M8451 4712 c-7 -17 -12 -95 -13 -199 -1 -150 1 -174 16 -199 l19 -27
18 24 c15 21 18 47 18 216 1 180 -1 193 -18 203 -27 14 -27 14 -40 -18z"/>
</g>
</svg>
